<?xml version="1.0" encoding="UTF-8"?>
<svg version="1.1" xmlns="http://www.w3.org/2000/svg" width="500" height="500">
<path d="M0 0 C0.9310556 0.00304138 1.86211121 0.00608276 2.82138062 0.00921631 C18.13411265 0.0828187 32.82758611 1.05821418 47.8125 4.4375 C48.7307959 4.63585449 49.6490918 4.83420898 50.59521484 5.03857422 C76.81223401 10.86818559 103.02441911 22.68967916 124.8125 38.4375 C125.4621875 38.90671875 126.111875 39.3759375 126.78125 39.859375 C136.63231148 47.03036828 145.43396692 54.59060171 153.8125 63.4375 C156.18793561 65.83836076 158.57764565 68.21384895 161.0234375 70.54296875 C166.41963196 75.73461432 170.72895989 81.17248978 174.8125 87.4375 C176.97294823 90.71090641 179.15380429 93.87894039 181.57421875 96.9609375 C185.11986553 101.68238451 187.8623863 106.69718924 190.5625 111.9375 C191.0776416 112.93724854 191.5927832 113.93699707 192.12353516 114.96704102 C199.59149964 129.69507986 206.16925177 144.5860104 210.25 160.625 C210.58427002 161.9387561 210.58427002 161.9387561 210.92529297 163.27905273 C214.94939506 180.44431473 216.36799478 197.6005032 216.25 215.1875 C216.24729095 216.14284637 216.24458191 217.09819275 216.24179077 218.08248901 C216.17704171 233.19265089 215.30358702 247.67922008 211.8125 262.4375 C211.60399414 263.33194824 211.39548828 264.22639648 211.18066406 265.14794922 C209.13633175 273.72512126 206.66287407 282.09494174 203.8125 290.4375 C203.1525 290.4375 202.4925 290.4375 201.8125 290.4375 C201.49152344 292.28408203 201.49152344 292.28408203 201.1640625 294.16796875 C199.76191069 300.44818461 197.00775618 305.99768277 194.1875 311.75 C193.64770508 312.86068848 193.10791016 313.97137695 192.55175781 315.11572266 C188.81721779 322.6816736 184.87662861 329.6747119 179.8125 336.4375 C178.81283203 337.83935547 178.81283203 337.83935547 177.79296875 339.26953125 C162.63676761 360.45343763 162.63676761 360.45343763 153.3515625 368.08203125 C151.54272805 369.67509104 150.2299441 371.49783965 148.8125 373.4375 C148.1525 373.4375 147.4925 373.4375 146.8125 373.4375 C146.8125 374.0975 146.8125 374.7575 146.8125 375.4375 C141.15741253 380.71629838 134.82302841 385.29461328 128.43359375 389.640625 C126.61161444 390.88967192 124.81340721 392.17382155 123.03515625 393.484375 C109.71672867 403.15180506 95.00433234 410.75222455 79.453125 416.12109375 C76.70152336 417.11603984 74.14515755 418.18104791 71.5 419.40625 C66.63976 421.59789065 61.70383753 423.11284661 56.5625 424.5 C55.6144751 424.75676514 54.6664502 425.01353027 53.68969727 425.27807617 C43.83437734 427.8452366 33.92347307 429.32171445 23.8125 430.4375 C22.69230469 430.56898438 21.57210937 430.70046875 20.41796875 430.8359375 C-27.8501036 435.51724465 -84.31686434 423.37985089 -122.6953125 392.4140625 C-125.00480059 390.58239953 -127.36008868 388.94470687 -129.8125 387.3125 C-134.88931039 383.80364005 -139.35426631 379.78872533 -143.83984375 375.57421875 C-146.191699 373.32649329 -146.191699 373.32649329 -149.1875 371.4375 C-149.1875 370.7775 -149.1875 370.1175 -149.1875 369.4375 C-150.1775 369.1075 -151.1675 368.7775 -152.1875 368.4375 C-153.6953125 366.94140625 -153.6953125 366.94140625 -155.3125 365 C-158.05174593 361.75691813 -160.86471923 358.61396239 -163.75 355.5 C-174.1875 343.93653682 -174.1875 343.93653682 -174.1875 339.4375 C-174.8475 339.4375 -175.5075 339.4375 -176.1875 339.4375 C-185.86405797 327.58275269 -191.8749983 313.23871601 -198.1875 299.4375 C-198.82632123 298.07528545 -199.4655597 296.71326638 -200.10546875 295.3515625 C-211.33902233 270.57421297 -214.60984162 243.23985041 -214.5 216.3125 C-214.49784485 215.36184662 -214.4956897 214.41119324 -214.49346924 213.43173218 C-214.44299962 199.56235892 -214.08726532 186.04717203 -211.1875 172.4375 C-211.00477539 171.51694824 -210.82205078 170.59639648 -210.63378906 169.64794922 C-204.9838949 141.78348761 -192.84471047 112.89366186 -175.1875 90.4375 C-173.91363394 88.62713018 -172.64288476 86.81456382 -171.375 85 C-166.77369868 78.70207986 -161.5834505 73.04804449 -156.1875 67.4375 C-155.55102539 66.76847656 -154.91455078 66.09945312 -154.25878906 65.41015625 C-145.32379017 56.0565275 -136.35534804 47.11197012 -125.1875 40.4375 C-124.5275 40.4375 -123.8675 40.4375 -123.1875 40.4375 C-123.1875 39.7775 -123.1875 39.1175 -123.1875 38.4375 C-120.87067675 36.67422647 -118.56811913 35.07384862 -116.125 33.5 C-115.37347656 33.01563477 -114.62195313 32.53126953 -113.84765625 32.03222656 C-104.08205938 25.91292658 -93.67960669 21.15942536 -83.1875 16.4375 C-82.42969238 16.08671387 -81.67188477 15.73592773 -80.89111328 15.37451172 C-72.29475904 11.40619702 -63.60898845 8.54302692 -54.4375 6.1875 C-53.53459229 5.95313232 -52.63168457 5.71876465 -51.70141602 5.47729492 C-34.62571873 1.34370955 -17.52339241 -0.12268327 0 0 Z " fill="#FDFDFD" transform="translate(249.1875,34.5625)"/>
<path d="M0 0 C20.79 0 41.58 0 63 0 C74.0581249 24.83051682 85.05247926 49.68720897 95.94561768 74.59051514 C96.982208 76.95934154 98.02000208 79.32763713 99.05810547 81.69580078 C100.63046957 85.28364562 102.19896278 88.87315553 103.7640686 92.46417236 C104.33314237 93.76853761 104.90341396 95.07238099 105.47494507 96.37567139 C106.24978679 98.14346229 107.01957766 99.91346453 107.7890625 101.68359375 C108.21912598 102.66900146 108.64918945 103.65440918 109.09228516 104.66967773 C110 107 110 107 110 109 C110.66 109 111.32 109 112 109 C112.25842934 108.17937073 112.25842934 108.17937073 112.52207947 107.34216309 C114.31591272 101.78782127 116.42709255 96.47833534 118.81640625 91.15625 C119.18521408 90.32543411 119.55402191 89.49461823 119.93400574 88.6386261 C121.13983479 85.92410225 122.35123001 83.21209975 123.5625 80.5 C124.84152926 77.62348564 126.1190322 74.74629633 127.39651489 71.86909485 C128.27467779 69.89157703 129.15332447 67.91427399 130.03244019 65.93717957 C134.63811387 55.57681912 139.19681221 45.19600841 143.75 34.8125 C144.482463 33.1432115 145.21496521 31.47394021 145.94750977 29.8046875 C150.30518377 19.87277651 154.65277973 9.93650347 159 0 C177.15 0 195.3 0 214 0 C212 5 212 5 210.0625 8.4375 C203.23828232 22.34164931 204.54282565 38.34485883 204.56640625 53.3984375 C204.56183648 55.9632684 204.55652856 58.52809809 204.55052185 61.09292603 C204.54162298 66.45035393 204.54373855 71.80761796 204.55395508 77.16503906 C204.56542501 83.31474864 204.55136095 89.46402149 204.5245586 95.61367357 C204.49953827 101.58307815 204.49725617 107.55234975 204.50367546 113.52180862 C204.50382767 116.0373164 204.49786729 118.55283298 204.48538399 121.06830978 C204.22007377 145.24904664 204.22007377 145.24904664 213.046875 167.3984375 C214 169 214 169 214 171 C191.56 171 169.12 171 146 171 C147.10935144 166.56259423 148.85824222 162.71186712 150.74609375 158.55859375 C153.71939621 150.12034283 154.29223457 141.626379 154.22705078 132.74536133 C154.22734283 131.68061584 154.22763489 130.61587036 154.22793579 129.51885986 C154.22655527 126.03983072 154.21105472 122.56102244 154.1953125 119.08203125 C154.19157782 116.65394711 154.188733 114.22586146 154.18673706 111.79777527 C154.17913642 105.43728402 154.15951883 99.07688552 154.1373291 92.71643066 C154.11679349 86.21396133 154.1077189 79.71147686 154.09765625 73.20898438 C154.07626937 60.4726169 154.04256664 47.73631341 154 35 C151.45632197 40.60886227 148.91416831 46.21841231 146.37327576 51.82853699 C145.51321582 53.72696963 144.65277778 55.62523104 143.79191589 57.52330017 C137.79414259 70.74838921 131.88181866 84.00793173 126.0625 97.3125 C125.28886385 99.08027859 124.51522287 100.84805507 123.74157715 102.61582947 C123.04516514 104.20742759 122.34875388 105.79902605 121.65234375 107.390625 C116.95381785 118.12535571 112.21514681 128.84217586 107.46090698 139.55233765 C106.57943579 141.53853236 105.69866308 143.52503723 104.81863403 145.51187134 C103.59194072 148.2809037 102.36274057 151.04880943 101.1328125 153.81640625 C100.7731691 154.6291803 100.4135257 155.44195435 100.04298401 156.27935791 C97.82577018 161.25824325 95.47001249 166.14133933 93 171 C91.02 171 89.04 171 87 171 C82.19189261 161.75656023 77.97958763 152.29945732 73.828125 142.74853516 C71.84447339 138.18596662 69.84983775 133.62820423 67.85546875 129.0703125 C67.44863861 128.14011292 67.04180847 127.20991333 66.62265015 126.25152588 C62.63457707 117.14389607 58.57390619 108.0694824 54.5 99 C47.48151785 83.370694 40.57308969 67.69463989 33.7109375 51.99609375 C33.34314682 51.15559479 32.97535614 50.31509583 32.59642029 49.4491272 C31.90899597 47.87790832 31.22246583 46.30629781 30.53700256 44.73422241 C29.09877083 41.4472345 27.6222073 38.19982956 26 35 C25.95361574 48.29135151 25.91809978 61.5826837 25.89637566 74.87409973 C25.88594806 81.04614119 25.87180742 87.21812718 25.84912109 93.39013672 C25.8273564 99.34884179 25.81542367 105.30749359 25.81024551 111.26623535 C25.80655629 113.53715859 25.79935217 115.80807899 25.78853989 118.07897949 C25.77397694 121.2649562 25.77202409 124.450714 25.77294922 127.63671875 C25.76575867 128.57108261 25.75856812 129.50544647 25.75115967 130.46812439 C25.79261628 143.70212167 30.61240542 155.43685848 38.546875 165.94140625 C40 168 40 168 41 171 C27.47 171 13.94 171 0 171 C1.77154054 167.45691892 3.72161267 164.3154039 5.875 161 C12.80261772 150.02176528 15.13316756 138.96134489 15.19287109 126.11767578 C15.20104858 125.13788254 15.20922607 124.15808929 15.21765137 123.14860535 C15.2424074 119.91418042 15.25900128 116.67979928 15.2734375 113.4453125 C15.27876118 112.33443142 15.28408485 111.22355034 15.28956985 110.0790062 C15.31626601 104.19265179 15.33564746 98.30631828 15.35009766 92.41992188 C15.36340008 87.57435069 15.39119027 82.72920427 15.43212891 77.88378906 C15.4817527 72.008849 15.50625545 66.1342921 15.51332474 60.25915146 C15.51998983 58.03388151 15.53508605 55.8086185 15.55921555 53.58346939 C15.72166986 37.68872037 15.05927749 22.51424569 5.25 9.1875 C1.06462848 3.19388545 1.06462848 3.19388545 0 0 Z " fill="#217E54" transform="translate(140,163)"/>
<path d="M0 0 C0.9310556 0.00304138 1.86211121 0.00608276 2.82138062 0.00921631 C18.13411265 0.0828187 32.82758611 1.05821418 47.8125 4.4375 C48.7307959 4.63585449 49.6490918 4.83420898 50.59521484 5.03857422 C76.81223401 10.86818559 103.02441911 22.68967916 124.8125 38.4375 C125.4621875 38.90671875 126.111875 39.3759375 126.78125 39.859375 C136.63231148 47.03036828 145.43396692 54.59060171 153.8125 63.4375 C156.18793561 65.83836076 158.57764565 68.21384895 161.0234375 70.54296875 C174.33128591 83.34636803 174.33128591 83.34636803 175.8125 91.4375 C172.99873568 88.71690669 170.52505364 85.90187723 168.125 82.8125 C156.57861604 68.26788375 143.74720078 55.45157777 128.8125 44.4375 C127.75160156 43.65503906 126.69070313 42.87257812 125.59765625 42.06640625 C117.35431351 36.18703819 108.72353088 31.2215067 99.8125 26.4375 C98.15154297 25.52677734 98.15154297 25.52677734 96.45703125 24.59765625 C48.56250284 -0.63709528 -10.00721767 -4.18431557 -61.5390625 10.96875 C-81.43038508 17.13257219 -99.6852305 26.14803633 -117.24658203 37.26757812 C-119.18311945 38.43485955 -121.15227265 39.45423256 -123.1875 40.4375 C-123.1875 39.7775 -123.1875 39.1175 -123.1875 38.4375 C-120.87067675 36.67422647 -118.56811913 35.07384862 -116.125 33.5 C-115.37347656 33.01563477 -114.62195313 32.53126953 -113.84765625 32.03222656 C-104.08205938 25.91292658 -93.67960669 21.15942536 -83.1875 16.4375 C-82.42969238 16.08671387 -81.67188477 15.73592773 -80.89111328 15.37451172 C-72.29475904 11.40619702 -63.60898845 8.54302692 -54.4375 6.1875 C-53.53459229 5.95313232 -52.63168457 5.71876465 -51.70141602 5.47729492 C-34.62571873 1.34370955 -17.52339241 -0.12268327 0 0 Z " fill="#1F1F1F" transform="translate(249.1875,34.5625)"/>
<path d="M0 0 C1.14710418 3.44131254 0.84459809 4.15869796 -0.328125 7.46484375 C-0.63202148 8.34100342 -0.93591797 9.21716309 -1.24902344 10.11987305 C-1.5793457 11.04968994 -1.90966797 11.97950684 -2.25 12.9375 C-20.49383047 66.09485559 -16.02365705 125.76486986 8.46777344 176.31811523 C12.46200576 184.22401851 17.12353338 191.74640914 21.90600586 199.19506836 C23.05064432 201.08355578 24.03838841 203.01296153 25 205 C24.34 205 23.68 205 23 205 C13.32344203 193.14525269 7.3125017 178.80121601 1 165 C0.36117877 163.63778545 -0.2780597 162.27576638 -0.91796875 160.9140625 C-12.15152233 136.13671297 -15.42234162 108.80235041 -15.3125 81.875 C-15.31034485 80.92434662 -15.3081897 79.97369324 -15.30596924 78.99423218 C-15.25555389 65.13977499 -14.95262921 51.58835988 -12 38 C-11.79068848 37.01563965 -11.58137695 36.0312793 -11.36572266 35.01708984 C-8.70557557 22.82710232 -5.56309178 11.20509267 0 0 Z " fill="#131313" transform="translate(50,169)"/>
<path d="M0 0 C4.11732229 0.60476989 7.92101511 1.52360363 11.875 2.8125 C55.07788722 16.30118425 104.50843485 18.10043595 147.3046875 1.8203125 C150 1 150 1 153 2 C146.72138744 4.99539758 140.46289157 7.25133505 133.75 9.0625 C132.8019751 9.31926514 131.8539502 9.57603027 130.87719727 9.84057617 C121.02187734 12.4077366 111.11097307 13.88421445 101 15 C99.87980469 15.13148438 98.75960937 15.26296875 97.60546875 15.3984375 C66.79363184 18.38674147 31.69004562 15.40434329 3 3 C1.10546875 1.3515625 1.10546875 1.3515625 0 0 Z " fill="#111111" transform="translate(172,450)"/>
<path d="M0 0 C1.975901 0.01510802 3.95181347 0.02878536 5.92773438 0.04101562 C10.68128306 0.07345897 15.434257 0.1248855 20.1875 0.1875 C20.1875 0.5175 20.1875 0.8475 20.1875 1.1875 C19.23198242 1.20731934 18.27646484 1.22713867 17.29199219 1.24755859 C-32.51194316 2.31618076 -76.00975886 9.87821854 -118.87158203 37.01757812 C-120.80811945 38.18485955 -122.77727265 39.20423256 -124.8125 40.1875 C-124.8125 39.5275 -124.8125 38.8675 -124.8125 38.1875 C-122.49567675 36.42422647 -120.19311913 34.82384862 -117.75 33.25 C-116.99847656 32.76563477 -116.24695313 32.28126953 -115.47265625 31.78222656 C-105.70705938 25.66292658 -95.30460669 20.90942536 -84.8125 16.1875 C-84.05469238 15.83671387 -83.29688477 15.48592773 -82.51611328 15.12451172 C-73.91975904 11.15619702 -65.23398845 8.29302692 -56.0625 5.9375 C-55.15959229 5.70313232 -54.25668457 5.46876465 -53.32641602 5.22729492 C-35.6130368 0.93934323 -18.16232852 -0.24680029 0 0 Z " fill="#121212" transform="translate(250.8125,34.8125)"/>
<path d="M0 0 C0.99 0.495 0.99 0.495 2 1 C1.21238281 1.58265625 0.42476563 2.1653125 -0.38671875 2.765625 C-8.75047651 9.03001473 -16.46203367 15.77053547 -24 23 C-24.94875 23.89589844 -25.8975 24.79179688 -26.875 25.71484375 C-46.55701842 44.75384168 -61.14063124 69.0146231 -72 94 C-73.31216199 90.06351403 -72.35849455 88.99334915 -70.60546875 85.29296875 C-70.06688232 84.15537109 -69.5282959 83.01777344 -68.97338867 81.84570312 C-68.37944533 80.62564255 -67.78412228 79.40625278 -67.1875 78.1875 C-66.89066315 77.57463135 -66.59382629 76.9617627 -66.28799438 76.33032227 C-61.66805939 66.82624209 -56.57127685 58.29936349 -50 50 C-48.6823435 48.12862014 -47.36966701 46.25372182 -46.0625 44.375 C-41.50036339 38.14732145 -36.34106035 32.5534714 -31 27 C-30.36352539 26.33097656 -29.72705078 25.66195312 -29.07128906 24.97265625 C-20.04273352 15.52108746 -11.00164882 7.09615067 0 0 Z " fill="#111111" transform="translate(124,75)"/>
<path d="M0 0 C0 3.97183967 -1.85061867 6.12773528 -4.0625 9.25 C-4.67496582 10.12507202 -4.67496582 10.12507202 -5.29980469 11.01782227 C-8.05248787 14.87233083 -10.97603927 18.28207582 -14.4453125 21.51953125 C-15.97420383 22.97543531 -17.29607815 24.48654667 -18.625 26.125 C-24.8 33.6 -24.8 33.6 -29 35 C-29 35.66 -29 36.32 -29 37 C-35.43194018 43.00395937 -42.71830575 48.08762058 -50 53 C-50.66 52.67 -51.32 52.34 -52 52 C-51.12859375 51.33355469 -50.2571875 50.66710937 -49.359375 49.98046875 C-41.74044602 44.10525564 -34.4241645 38.04534754 -27.46337891 31.39599609 C-26.4889847 30.46646889 -25.5094751 29.54227418 -24.52490234 28.62353516 C-16.0150125 20.66882099 -9.00408551 11.86409906 -2.11645508 2.48364258 C-1 1 -1 1 0 0 Z " fill="#161616" transform="translate(425,373)"/>
<path d="M0 0 C-13.86425128 6.58735325 -28.69525767 10.00023546 -43.875 11.9375 C-44.86636963 12.06584229 -45.85773926 12.19418457 -46.87915039 12.32641602 C-52.49254078 12.96544357 -57.42848232 12.95492915 -63 12 C-63 11.67 -63 11.34 -63 11 C-61.26943359 10.87044922 -61.26943359 10.87044922 -59.50390625 10.73828125 C-41.22317851 9.22139005 -22.8999959 6.36514651 -5.6953125 -0.1796875 C-3 -1 -3 -1 0 0 Z " fill="#252525" transform="translate(325,452)"/>
<path d="M0 0 C2.81376432 2.72059331 5.28744636 5.53562277 7.6875 8.625 C18.25919227 21.93678162 29.98891648 34.34683907 43.59448242 44.57397461 C47.91202561 47.82405122 47.91202561 47.82405122 49 50 C44.37294875 48.52658145 41.14662978 45.84404939 37.5625 42.6875 C36.45980843 41.73287303 35.35694469 40.7784449 34.25390625 39.82421875 C33.71910645 39.3554834 33.18430664 38.88674805 32.63330078 38.40380859 C30.98233288 36.98481526 29.28978377 35.6291839 27.58984375 34.26953125 C26.73519531 33.52058594 25.88054687 32.77164063 25 32 C25 31.34 25 30.68 25 30 C24.01 29.67 23.02 29.34 22 29 C20.4921875 27.50390625 20.4921875 27.50390625 18.875 25.5625 C16.13575407 22.31941813 13.32278077 19.17646239 10.4375 16.0625 C0 4.49903682 0 4.49903682 0 0 Z " fill="#1A1A1A" transform="translate(75,374)"/>
<path d="M0 0 C0.66 0.33 1.32 0.66 2 1 C1.21238281 1.58265625 0.42476562 2.1653125 -0.38671875 2.765625 C-12.92671423 12.15798441 -24.01667872 22.85826543 -35 34 C-36.66550966 35.66782287 -38.33184457 37.33482342 -40 39 C-38.56907476 34.51646797 -36.33695244 31.93876418 -33.046875 28.61328125 C-32.55419128 28.11390549 -32.06150757 27.61452972 -31.55389404 27.10002136 C-29.96178931 25.49469125 -28.35720553 23.90270187 -26.75 22.3125 C-26.20931885 21.77286621 -25.6686377 21.23323242 -25.11157227 20.67724609 C-17.30336571 12.90040713 -9.47614869 5.73907597 0 0 Z " fill="#141414" transform="translate(124,75)"/>
<path d="M0 0 C0.66 0.33 1.32 0.66 2 1 C-4.34447552 6.30675404 -10.88793823 10.37974375 -18.25 14.125 C-19.25836914 14.64344482 -20.26673828 15.16188965 -21.30566406 15.69604492 C-36.45249844 23.38509609 -36.45249844 23.38509609 -43 25 C-43.99 24.67 -44.98 24.34 -46 24 C-44.83726562 23.53851563 -43.67453125 23.07703125 -42.4765625 22.6015625 C-27.5302524 16.55568722 -13.12832658 9.44318228 0 0 Z " fill="#151515" transform="translate(371,426)"/>
<path d="M0 0 C9.46986178 6.94781956 14.04367133 18.81065748 19.0625 29.125 C19.81490967 30.6550769 19.81490967 30.6550769 20.58251953 32.21606445 C21.27063721 33.65985474 21.27063721 33.65985474 21.97265625 35.1328125 C22.38781494 35.99793457 22.80297363 36.86305664 23.23071289 37.75439453 C24 40 24 40 23 43 C22.75467529 42.45811035 22.50935059 41.9162207 22.2565918 41.35791016 C16.60800306 28.97040245 10.46053923 17.21747342 3.078125 5.77319336 C1.93697047 3.89633527 0.95654908 1.97641519 0 0 Z " fill="#111111" transform="translate(425,126)"/>
<path d="M0 0 C12.12097185 5.5942947 22.56574582 13.78723219 33 22 C32.67 22.66 32.34 23.32 32 24 C31.49251221 23.61779297 30.98502441 23.23558594 30.4621582 22.84179688 C21.2692986 15.93858546 12.16039503 9.17282903 2.17578125 3.453125 C1.45777344 2.97359375 0.73976563 2.4940625 0 2 C0 1.34 0 0.68 0 0 Z " fill="#0F0F0F" transform="translate(354,61)"/>
<path d="M0 0 C-5.9798568 2.9899284 -12.02067413 5.00518516 -18.4375 6.8125 C-19.24300293 7.04348389 -20.04850586 7.27446777 -20.87841797 7.51245117 C-26.75330508 9.12334746 -26.75330508 9.12334746 -29 8 C-24.22620632 5.40439199 -19.51058146 3.82813062 -14.3125 2.375 C-12.80849735 1.94565005 -11.30458729 1.51597559 -9.80078125 1.0859375 C-8.54652344 0.72757812 -7.29226563 0.36921875 -6 0 C-3 -1 -3 -1 0 0 Z " fill="#131313" transform="translate(325,452)"/>
<path d="M0 0 C6.59955485 5.08715686 14.58745813 12.40367375 16 21 C13.08526539 18.18285695 10.50994337 15.24404931 8 12.0625 C7.34 11.22847656 6.68 10.39445312 6 9.53515625 C5.34 8.69855469 4.68 7.86195312 4 7 C3.2575 6.11183594 2.515 5.22367187 1.75 4.30859375 C0 2 0 2 0 0 Z " fill="#171717" transform="translate(409,105)"/>
<path d="M0 0 C0.66 0.33 1.32 0.66 2 1 C-4 7 -10 13 -16 19 C-14.52770326 13.57738597 -10.79625199 10.45733731 -6.875 6.6875 C-6.21628906 6.04232422 -5.55757812 5.39714844 -4.87890625 4.73242188 C-3.25919856 3.14792522 -1.63289995 1.57087901 0 0 Z " fill="#1E1E1E" transform="translate(100,95)"/>
<path d="M0 0 C3.93707729 1.34707759 6.51093012 3.06224864 9.5625 5.875 C10.30628906 6.55304688 11.05007812 7.23109375 11.81640625 7.9296875 C13.91440961 9.9188499 15.96733186 11.94428574 18 14 C13.16219824 12.47850679 9.9409405 9.70554574 6.1875 6.4375 C5.2912793 5.67663086 5.2912793 5.67663086 4.37695312 4.90039062 C2.89403678 3.62762471 1.44380332 2.31696847 0 1 C0 0.67 0 0.34 0 0 Z " fill="#131313" transform="translate(106,410)"/>
<path d="M0 0 C3.80133442 1.67923025 6.97082702 4.11462834 10.25 6.625 C10.80429687 7.04523438 11.35859375 7.46546875 11.9296875 7.8984375 C13.28866663 8.92938719 14.64463835 9.96429911 16 11 C15.67 11.66 15.34 12.32 15 13 C12.49234716 11.21885509 9.99529316 9.42340948 7.5 7.625 C6.78457031 7.11710937 6.06914062 6.60921875 5.33203125 6.0859375 C4.31689453 5.35117188 4.31689453 5.35117188 3.28125 4.6015625 C2.33862305 3.92601318 2.33862305 3.92601318 1.37695312 3.23681641 C0.69536133 2.62459229 0.69536133 2.62459229 0 2 C0 1.34 0 0.68 0 0 Z " fill="#151515" transform="translate(371,72)"/>
<path d="M0 0 C2.00293347 3.00440021 2.49271626 4.70993945 3.125 8.1875 C3.29257812 9.08855469 3.46015625 9.98960937 3.6328125 10.91796875 C3.75398438 11.60503906 3.87515625 12.29210937 4 13 C3.34 13 2.68 13 2 13 C1.46845258 11.39935157 0.95011647 9.79431126 0.4375 8.1875 C0.14746094 7.29417969 -0.14257812 6.40085937 -0.44140625 5.48046875 C-1 3 -1 3 0 0 Z " fill="#202020" transform="translate(41,299)"/>
<path d="M0 0 C1.15518918 0.90484792 2.29885406 1.8244206 3.4375 2.75 C4.07558594 3.26046875 4.71367187 3.7709375 5.37109375 4.296875 C7.18810554 6.19667629 7.60423197 7.43586908 8 10 C4.82537057 7.59757773 2.14248259 5.38286724 0 2 C0 1.34 0 0.68 0 0 Z " fill="#101010" transform="translate(409,105)"/>
</svg>
