<?xml version="1.0" encoding="UTF-8"?>
<!DOCTYPE svg PUBLIC "-//W3C//DTD SVG 1.1//EN" "http://www.w3.org/Graphics/SVG/1.1/DTD/svg11.dtd">
<svg xmlns="http://www.w3.org/2000/svg" version="1.1" width="512px" height="512px" style="shape-rendering:geometricPrecision; text-rendering:geometricPrecision; image-rendering:optimizeQuality; fill-rule:evenodd; clip-rule:evenodd" xmlns:xlink="http://www.w3.org/1999/xlink">
<g><path style="opacity:0.999" fill="#f4f4fb" d="M 40.5,-0.5 C 183.833,-0.5 327.167,-0.5 470.5,-0.5C 474.216,2.05182 477.049,5.38515 479,9.5C 479.667,173.5 479.667,337.5 479,501.5C 477.049,505.615 474.216,508.948 470.5,511.5C 327.167,511.5 183.833,511.5 40.5,511.5C 36.7841,508.948 33.9508,505.615 32,501.5C 31.3333,337.5 31.3333,173.5 32,9.5C 33.9508,5.38515 36.7841,2.05182 40.5,-0.5 Z"/></g>
<g><path style="opacity:1" fill="#1182f5" d="M 150.5,128.5 C 150.56,129.043 150.893,129.376 151.5,129.5C 152.499,114.848 152.833,100.182 152.5,85.5C 154.183,78.1601 158.85,74.4935 166.5,74.5C 173.63,74.483 178.463,77.8163 181,84.5C 181.667,117.167 181.667,149.833 181,182.5C 176.816,193.452 169.316,196.618 158.5,192C 146.223,175.562 134.556,158.729 123.5,141.5C 123.217,140.711 122.717,140.044 122,139.5C 121.5,153.163 121.333,166.829 121.5,180.5C 118.066,192.884 110.399,196.717 98.5,192C 96.2911,190.127 94.4578,187.96 93,185.5C 91.8608,168.05 91.3608,150.55 91.5,133C 91.3467,116.078 91.8467,99.2449 93,82.5C 98.8014,74.1265 106.301,72.2932 115.5,77C 127.795,93.7625 139.462,110.929 150.5,128.5 Z"/></g>
<g><path style="opacity:1" fill="#1382f5" d="M 245.5,74.5 C 260.17,74.3334 274.837,74.5001 289.5,75C 298.301,78.0965 301.801,84.2632 300,93.5C 297.744,98.7575 293.91,102.257 288.5,104C 275.5,104.333 262.5,104.667 249.5,105C 245.612,107.222 242.779,110.388 241,114.5C 240.333,127.5 240.333,140.5 241,153.5C 248.359,166.338 257.359,167.672 268,157.5C 269.549,154.688 270.382,151.688 270.5,148.5C 262.85,146.508 258.85,141.508 258.5,133.5C 258.886,127.277 261.886,122.777 267.5,120C 296.039,114.543 306.873,126.043 300,154.5C 295.32,179.353 280.32,192.687 255,194.5C 229.702,192.201 215.036,178.535 211,153.5C 210.333,139.167 210.333,124.833 211,110.5C 215.988,92.1411 227.488,80.1411 245.5,74.5 Z"/></g>
<g><path style="opacity:1" fill="#1382f5" d="M 364.5,74.5 C 392.837,72.0232 411.004,84.3566 419,111.5C 419.667,125.833 419.667,140.167 419,154.5C 412.176,184.006 393.676,196.839 363.5,193C 344.095,187.266 332.929,174.433 330,154.5C 329.333,139.5 329.333,124.5 330,109.5C 335.051,91.2833 346.551,79.6167 364.5,74.5 Z"/></g>
<g><path style="opacity:1" fill="#3c99f6" d="M 152.5,85.5 C 152.833,100.182 152.499,114.848 151.5,129.5C 150.893,129.376 150.56,129.043 150.5,128.5C 151.167,114.167 151.833,99.8333 152.5,85.5 Z"/></g>
<g><path style="opacity:1" fill="#f2f3fb" d="M 368.5,104.5 C 378.501,102.642 385.334,106.309 389,115.5C 389.924,128.89 389.591,142.223 388,155.5C 380.06,166.542 371.393,167.209 362,157.5C 361.138,155.913 360.471,154.246 360,152.5C 359.333,139.833 359.333,127.167 360,114.5C 361.978,110.362 364.811,107.029 368.5,104.5 Z"/></g>
<g><path style="opacity:1" fill="#cee1fa" d="M 123.5,141.5 C 122.833,154.5 122.167,167.5 121.5,180.5C 121.333,166.829 121.5,153.163 122,139.5C 122.717,140.044 123.217,140.711 123.5,141.5 Z"/></g>
<g><path style="opacity:1" fill="#1783f5" d="M 100.5,227.5 C 203.167,227.333 305.834,227.5 408.5,228C 419,232.492 421.834,239.992 417,250.5C 414.441,253.531 411.274,255.698 407.5,257C 306.167,257.667 204.833,257.667 103.5,257C 93.1751,253.183 89.6751,246.017 93,235.5C 95.0282,232.308 97.5282,229.641 100.5,227.5 Z"/></g>
<g><path style="opacity:1" fill="#1583f5" d="M 101.5,287.5 C 203.834,287.333 306.167,287.5 408.5,288C 419,292.492 421.834,299.992 417,310.5C 414.441,313.531 411.274,315.698 407.5,317C 306.167,317.667 204.833,317.667 103.5,317C 91.6958,311.92 88.8625,303.753 95,292.5C 96.9651,290.45 99.1318,288.783 101.5,287.5 Z"/></g>
<g><path style="opacity:1" fill="#1383f5" d="M 101.5,347.5 C 174.167,347.333 246.834,347.5 319.5,348C 330.454,353.085 332.954,360.918 327,371.5C 324.559,373.969 321.726,375.802 318.5,377C 246.833,377.667 175.167,377.667 103.5,377C 91.6958,371.92 88.8625,363.753 95,352.5C 96.9651,350.45 99.1318,348.783 101.5,347.5 Z"/></g>
<g><path style="opacity:1" fill="#1282f5" d="M 101.5,407.5 C 139.168,407.333 176.835,407.5 214.5,408C 225.803,412.572 228.636,420.405 223,431.5C 220.592,433.956 217.759,435.789 214.5,437C 177.167,437.667 139.833,437.667 102.5,437C 91.5084,431.362 89.0084,423.195 95,412.5C 97.3256,410.934 99.4922,409.268 101.5,407.5 Z"/></g>
<g><path style="opacity:1" fill="#1383f5" d="M 339.5,407.5 C 362.502,407.333 385.502,407.5 408.5,408C 419,412.492 421.834,419.992 417,430.5C 414.635,433.869 411.468,436.036 407.5,437C 385.167,437.667 362.833,437.667 340.5,437C 329.967,432.064 327.133,424.231 332,413.5C 334.114,410.879 336.614,408.879 339.5,407.5 Z"/></g>
</svg>
